# xmcd CD database file
#
# Track frame offsets:
#	150
#	61840
#	115979
#	177540
#	225424
#
# Disc length: 3556 seconds
#
# Revision: 0
# Processed by: cddbd v1.5.2PL0 Copyright (c) Steve Scherf et al.
# Submitted via: CDex 1.70beta2
#
DISCID=3a0de205
DTITLE=Miles Davis Quintet - Live in Milan 1964
DYEAR=2007
DGENRE=Jazz
TTITLE0=Autumn leaves
TTITLE1=My funny Valentine
TTITLE2=All blues
TTITLE3=All of you
TTITLE4=Joshua into The Theme
EXTD=YEAR: 2007
EXTT0=
EXTT1=
EXTT2=
EXTT3=
EXTT4=
PLAYORDER=
